<svg width="14" height="17" viewBox="0 0 14 17" fill="none" xmlns="http://www.w3.org/2000/svg">
<path d="M11.7581 6.11987H11.243V4.11987C11.243 1.91382 9.39466 0.119873 7.12176 0.119873C4.84885 0.119873 3.00055 1.91382 3.00055 4.11987V6.11987H2.4854C1.63369 6.11987 0.939941 6.79248 0.939941 7.61987V14.6199C0.939941 15.4473 1.63369 16.1199 2.4854 16.1199H11.7581C12.6098 16.1199 13.3036 15.4473 13.3036 14.6199V7.61987C13.3036 6.79248 12.6098 6.11987 11.7581 6.11987ZM4.37433 4.11987C4.37433 2.64917 5.60649 1.45325 7.12176 1.45325C8.63703 1.45325 9.86919 2.64917 9.86919 4.11987V6.11987H4.37433V4.11987Z" fill="#E58638"/>
</svg>
