<svg width="18" height="18" viewBox="0 0 18 18" fill="none" xmlns="http://www.w3.org/2000/svg">
<path d="M8.60312 8.80605C8.82187 9.0662 9.17812 9.0662 9.4 8.80605L12.8031 4.79138C13.7906 3.62424 13.7344 1.69073 12.6281 0.61499C11.6656 -0.323643 10.2313 -0.1549 9.35 0.885681L9 1.29699L8.65312 0.889197C7.77187 -0.1549 6.3375 -0.323643 5.375 0.61499C4.27187 1.69073 4.2125 3.62424 5.2 4.79138L8.60312 8.80605ZM17.6656 11.5341C17.2969 11.1579 16.7219 11.1825 16.3344 11.5341L13.4469 14.132C13.0938 14.4519 12.6531 14.6242 12.1969 14.6242H8.5C8.225 14.6242 8 14.3711 8 14.0617C8 13.7523 8.225 13.4992 8.5 13.4992H10.9469C11.4437 13.4992 11.9062 13.116 11.9875 12.5641C12.0906 11.861 11.6094 11.2493 11 11.2493H6C5.15625 11.2493 4.34062 11.5762 3.68438 12.1739L2.23125 13.4992H0.5C0.225 13.4992 0 13.7523 0 14.0617V17.4365C0 17.7459 0.225 17.999 0.5 17.999H11.65C12.1031 17.999 12.5437 17.8268 12.9 17.5069L17.625 13.2531C18.1 12.8278 18.1375 12.0122 17.6656 11.5341Z" fill="#E58638"/>
</svg>
